<svg width="1000" height="1000" viewBox="0 0 1000 1000" fill="none" xmlns="http://www.w3.org/2000/svg">
<g clip-path="url(#clip0_521_15)">
<rect width="1000" height="1000" rx="500" fill="#194BCD"/>
<path d="M1585.73 380.768C1325.6 616.404 1049.66 829.907 750.989 1010.4C422.879 1208.68 289.708 1143.03 220.416 1014.44C127.591 842.168 277.702 725.186 322.772 692.758C523.373 548.442 742.805 448.477 924.84 286.723C972.052 244.742 1137.8 71.5702 995.143 -93.2784C827.384 -287.172 482.976 94.9213 357.055 161.553C329.535 176.126 301.025 190.975 269.25 192.26C237.475 193.545 201.251 177.8 185.843 146.351C162.308 98.4437 194.446 42.3364 235.938 19.3379C290.946 -11.1358 447.566 -74.1778 448.419 -154.204C449.271 -234.231 372.721 -247.225 353.693 -237.293C321.625 -220.59 289.539 -203.814 257.471 -187.111" stroke="#1142BF" stroke-width="400" stroke-miterlimit="10" stroke-linecap="round"/>
<path d="M677.1 767L635.45 647.15H382.15L340.5 767H234.25L450.15 172H567.45L782.5 767H677.1ZM414.45 555.35H603.15L508.8 286.75L414.45 555.35Z" fill="white"/>
</g>
<defs>
<clipPath id="clip0_521_15">
<rect width="1000" height="1000" rx="500" fill="white"/>
</clipPath>
</defs>
</svg>
